<?xml version="1.0" standalone="no"?>
<!DOCTYPE svg PUBLIC "-//W3C//DTD SVG 20010904//EN"
 "http://www.w3.org/TR/2001/REC-SVG-20010904/DTD/svg10.dtd">
<svg version="1.0" xmlns="http://www.w3.org/2000/svg"
 width="1692.000000pt" height="777.000000pt" viewBox="0 0 1692.000000 777.000000"
 preserveAspectRatio="xMidYMid meet">
<metadata>
Created by potrace 1.16, written by Peter Selinger 2001-2019
</metadata>
<g transform="translate(0.000000,777.000000) scale(0.100000,-0.100000)"
fill="#000000" stroke="none">
<path d="M0 5121 c0 -1989 3 -2652 12 -2657 6 -4 16 -1 22 7 6 8 19 13 29 11
9 -2 17 1 17 6 0 4 15 9 33 9 48 1 120 13 132 23 6 5 28 10 49 12 20 1 40 6
42 10 3 4 23 8 44 8 21 0 42 5 45 10 4 6 23 7 44 4 24 -4 41 -2 45 5 11 17
-11 74 -34 91 -18 13 -18 15 20 38 22 13 40 27 40 33 0 5 43 9 98 9 146 0 381
29 452 55 25 10 67 16 95 15 111 -5 206 -2 218 8 6 6 44 13 82 15 39 3 107 12
153 21 46 8 147 22 225 31 78 9 176 25 217 35 105 27 225 43 295 41 45 -2 76
4 127 25 37 15 68 31 68 35 0 4 -13 10 -30 14 -17 4 -42 22 -60 46 -18 21 -50
47 -73 58 -67 30 -157 127 -164 176 -2 11 -5 29 -7 40 -3 14 10 36 43 71 56
60 111 83 222 91 108 8 110 7 529 -195 80 -38 168 -80 195 -92 28 -12 86 -40
130 -60 44 -21 159 -73 255 -115 258 -113 738 -355 777 -392 30 -28 34 -37 31
-74 -4 -60 -32 -77 -154 -95 -107 -15 -481 -43 -899 -69 -143 -8 -323 -20
-400 -25 -189 -14 -456 -28 -845 -45 -179 -8 -368 -17 -420 -20 -52 -3 -205
-10 -340 -15 -416 -17 -490 -20 -660 -31 -91 -5 -208 -12 -260 -15 -52 -3
-157 -9 -234 -15 -76 -5 -154 -7 -172 -3 l-34 6 0 -1131 0 -1131 1084 0 1084
0 6 23 c3 12 6 41 6 63 0 23 6 57 14 75 10 23 12 47 7 76 -5 27 -4 51 4 71 7
16 9 35 5 42 -9 15 -2 76 12 102 6 13 5 18 -7 18 -11 0 -15 11 -15 40 0 42 14
54 23 20 4 -16 10 -18 33 -11 39 10 164 1 189 -14 31 -19 482 -12 605 9 98 16
123 16 161 -4 18 -10 194 -15 334 -9 11 0 41 -2 67 -6 25 -3 49 -2 52 3 3 5
25 6 50 2 30 -4 56 -2 78 7 43 18 134 14 178 -7 46 -23 126 -34 227 -32 45 1
94 -3 108 -8 14 -5 25 -6 25 -2 0 4 45 7 99 7 70 1 104 5 116 15 23 19 41 23
100 22 218 -4 395 0 395 9 0 3 99 6 220 5 121 -1 220 -5 220 -10 0 -5 6 -3 14
3 8 7 30 12 48 11 18 0 59 -1 90 -1 32 1 108 -3 169 -8 67 -6 122 -6 136 0 18
7 25 5 29 -6 4 -8 10 -12 15 -9 18 11 98 14 104 4 4 -6 21 -8 42 -4 26 5 34 4
29 -5 -5 -7 2 -11 18 -11 14 0 27 4 30 8 3 5 27 6 54 2 47 -6 118 -5 187 1 17
2 60 0 98 -4 43 -5 74 -4 88 3 16 9 26 8 44 -4 16 -10 26 -12 30 -5 4 6 12 6
18 1 7 -5 39 -9 72 -10 88 -3 267 -21 274 -27 3 -4 0 -10 -8 -14 -9 -6 -8 -10
8 -14 12 -3 22 1 25 9 9 22 28 17 21 -6 -4 -11 -2 -20 4 -20 6 0 11 5 11 10 0
6 7 10 15 10 8 0 15 -4 15 -9 0 -15 86 -34 107 -23 21 13 9 20 -45 25 -17 2
-35 7 -40 12 -4 4 10 5 31 1 23 -4 37 -3 37 4 0 5 5 10 10 10 6 0 9 -6 8 -12
-2 -7 4 -13 12 -13 8 0 20 -6 25 -13 8 -10 17 -10 35 -3 20 8 21 10 6 10 -11
1 -17 3 -15 6 4 4 59 10 172 21 27 2 52 6 56 8 28 18 754 23 791 6 13 -6 176
3 180 10 3 5 21 7 40 6 19 -2 60 1 90 6 30 4 156 11 280 13 124 3 290 7 368
10 107 3 152 1 176 -9 20 -8 98 -16 211 -20 98 -4 181 -8 184 -11 4 -2 72 -6
151 -10 80 -3 162 -7 183 -8 20 -1 37 1 37 5 0 5 8 8 19 8 10 0 25 7 32 16 11
14 25 15 89 9 127 -12 611 -6 628 8 10 8 44 11 101 9 178 -6 659 -4 732 3 55
5 83 3 100 -6 25 -13 54 -15 381 -18 156 -2 190 0 211 13 31 21 115 23 158 3
27 -12 83 -16 264 -19 127 -3 236 -8 243 -12 7 -4 26 -5 42 -1 21 5 30 3 30
-6 0 -10 3 -10 12 -1 20 20 47 15 41 -8 -3 -12 0 -20 6 -20 7 0 10 -4 6 -9 -3
-5 15 -24 39 -42 39 -27 43 -33 30 -46 -8 -8 -14 -28 -14 -44 0 -21 -4 -28
-12 -23 -7 4 -2 -5 11 -19 20 -22 22 -29 11 -42 -10 -12 -10 -22 -2 -39 8 -18
7 -27 -6 -40 -15 -15 -14 -16 11 -16 30 0 38 -24 11 -34 -8 -3 -12 -11 -9 -17
4 -6 13 -8 21 -5 10 4 14 -2 14 -19 l0 -25 1723 0 1724 0 11 147 c9 110 12
1100 12 3886 l0 3737 -1400 0 c-1254 0 -1400 -2 -1400 -15 0 -9 -9 -33 -20
-55 -27 -53 -26 -78 5 -86 13 -3 29 -11 34 -18 10 -11 61 -12 111 -2 62 13
151 24 167 21 10 -2 40 -7 66 -11 38 -5 53 -13 74 -40 14 -19 23 -40 20 -48
-3 -7 -1 -31 3 -52 7 -28 6 -42 -3 -49 -7 -5 -13 -23 -15 -40 -1 -16 -7 -39
-11 -50 -5 -11 -12 -32 -15 -46 -11 -50 -39 -69 -146 -99 -25 -7 -64 -19 -88
-26 -23 -8 -52 -14 -63 -14 -22 0 -39 -32 -21 -38 7 -2 -3 -18 -25 -38 -20
-19 -34 -34 -31 -34 4 0 3 -13 -2 -29 -5 -19 -5 -31 2 -33 5 -2 0 -16 -12 -30
-11 -15 -27 -25 -34 -22 -7 3 -16 -2 -19 -10 -4 -10 -13 -13 -23 -9 -9 3 -20
0 -25 -8 -8 -12 -11 -12 -19 1 -7 11 -12 12 -17 4 -5 -7 -29 -11 -55 -10 -41
1 -45 -1 -37 -16 11 -20 -1 -24 -18 -7 -13 13 -57 -6 -48 -21 3 -5 1 -11 -5
-15 -5 -3 -10 -1 -10 5 0 12 -52 2 -61 -12 -3 -5 -12 -7 -20 -5 -8 2 -11 2 -6
0 4 -3 7 -9 7 -14 0 -6 -4 -8 -9 -4 -6 3 -14 -3 -20 -12 -9 -16 -11 -16 -19 7
-10 25 -10 25 -20 -10 -6 -19 -11 -29 -11 -22 -1 6 -8 12 -16 12 -18 0 -20
-16 -2 -23 11 -5 -46 -11 -66 -8 -5 1 -16 -8 -26 -20 l-18 -22 -5 21 c-5 18
-1 22 28 28 19 3 34 10 34 15 0 12 -10 11 -48 -2 -23 -8 -36 -8 -49 1 -16 10
-16 11 -1 6 10 -3 20 -1 23 4 6 10 -63 35 -84 31 -12 -2 -13 0 -3 12 11 12 8
19 -14 36 -15 12 -32 21 -39 21 -15 0 -28 42 -20 62 6 14 0 20 -69 83 -21 19
-36 35 -33 35 3 0 -8 14 -24 31 -16 17 -29 36 -29 43 0 6 -16 29 -35 49 -28
30 -35 45 -35 77 0 22 4 40 9 40 15 0 19 61 5 67 -10 3 -12 17 -7 49 6 43 5
44 -25 50 -18 4 -37 13 -43 20 -6 8 -16 14 -22 14 -5 0 -32 14 -59 31 -42 25
-62 31 -127 33 -47 3 -91 -1 -116 -10 -22 -7 -52 -14 -67 -14 -15 0 -30 -5
-33 -11 -4 -5 -12 -8 -18 -6 -7 2 -23 0 -37 -5 -25 -10 -100 -20 -295 -38
-160 -16 -228 -18 -651 -24 -221 -3 -413 -8 -428 -12 -33 -8 -33 -22 -2 -34
29 -11 29 -11 171 -15 61 -2 118 -7 128 -11 9 -3 25 0 34 7 15 12 16 12 10 -3
-4 -12 -2 -18 8 -18 8 0 15 4 15 9 0 6 15 5 36 -1 27 -7 39 -7 44 2 6 10 20
10 56 2 71 -15 177 -14 167 1 -4 7 0 7 10 -2 10 -8 33 -12 57 -9 22 2 41 0 43
-5 1 -4 61 -10 132 -13 72 -3 154 -9 184 -13 30 -5 68 -5 84 0 32 9 76 -5 47
-15 -35 -13 -174 -26 -315 -30 -55 -2 -111 -6 -125 -10 -14 -4 -20 -4 -13 1
15 11 -98 11 -115 0 -7 -5 -19 -4 -27 3 -10 9 -19 9 -36 0 -14 -8 -19 -8 -15
-1 4 6 0 11 -9 11 -9 0 -13 -5 -10 -10 4 -7 -26 -11 -87 -11 -276 -1 -488 -7
-523 -13 -22 -5 -76 -25 -120 -47 -94 -45 -180 -59 -372 -59 -141 0 -196 15
-263 72 -42 37 -100 114 -100 136 0 6 -7 12 -15 12 -32 0 -29 103 5 142 93
110 158 175 189 188 40 16 45 24 29 50 -12 19 -22 20 -242 20 -194 0 -227 -2
-217 -14 9 -11 8 -18 -6 -32 -14 -14 -15 -18 -4 -22 7 -2 23 -16 35 -30 11
-14 39 -46 61 -71 49 -55 75 -95 75 -115 0 -8 6 -16 13 -19 8 -2 12 -30 12
-93 0 -85 -1 -91 -34 -136 -23 -32 -49 -54 -85 -70 -49 -22 -60 -23 -261 -21
-115 1 -220 5 -232 8 -17 4 -23 1 -23 -11 0 -10 6 -14 14 -11 8 3 20 -1 26 -8
10 -12 8 -17 -11 -24 -13 -5 -17 -10 -9 -10 8 -1 28 6 44 14 35 19 37 19 30 0
-6 -16 6 -19 61 -15 26 2 27 0 16 -14 -12 -14 -9 -16 28 -16 30 0 40 -3 35
-12 -5 -7 -2 -9 8 -6 8 4 21 2 29 -2 8 -5 16 -5 20 1 3 6 11 -8 17 -30 8 -33
7 -41 -3 -41 -10 0 -12 -13 -8 -55 5 -47 3 -55 -11 -55 -13 0 -16 -5 -11 -19
4 -13 0 -23 -12 -30 -10 -5 -15 -13 -10 -17 4 -4 -4 -22 -18 -40 -14 -18 -25
-37 -25 -42 0 -6 -5 -12 -12 -14 -8 -3 -6 -7 4 -11 12 -4 19 0 23 14 4 10 13
19 22 19 8 0 17 9 20 20 3 11 11 20 17 20 6 0 19 9 29 20 9 11 21 20 26 20 5
0 7 -9 4 -20 -4 -14 0 -20 11 -20 12 0 15 -6 11 -22 -4 -17 0 -25 17 -33 15
-6 23 -18 22 -33 0 -12 5 -22 11 -22 7 0 20 -9 30 -20 10 -11 26 -20 35 -20
10 0 20 -9 23 -20 3 -13 11 -18 20 -14 8 3 18 1 21 -4 3 -5 -4 -12 -15 -15
l-22 -6 24 -29 c21 -26 26 -28 40 -16 41 36 35 5 -8 -42 -18 -20 -33 -40 -33
-45 0 -5 -9 -9 -20 -9 -11 0 -19 -3 -19 -7 4 -27 -3 -43 -20 -43 -10 0 -24 -7
-31 -15 -7 -8 -21 -15 -31 -15 -11 0 -19 -5 -19 -10 0 -6 -18 -18 -40 -27 -22
-10 -40 -21 -40 -25 0 -5 -5 -8 -11 -8 -6 0 -8 7 -4 18 4 11 3 13 -3 7 -6 -5
-12 -19 -14 -30 -2 -12 -13 -21 -26 -23 -13 -2 -26 -10 -29 -18 -4 -11 -9 -12
-19 -3 -14 12 -34 4 -34 -13 0 -17 -41 -48 -65 -48 -21 0 -55 -28 -55 -45 0
-13 -42 -45 -61 -45 -9 0 -19 -6 -21 -12 -3 -7 -13 -13 -24 -13 -10 0 -18 -6
-16 -12 1 -7 -3 -13 -9 -13 -5 0 -7 -4 -4 -10 3 -5 0 -7 -9 -4 -9 3 -21 -4
-31 -20 -9 -13 -26 -26 -38 -28 -12 -2 -21 -9 -19 -16 3 -16 -15 -16 -22 1 -3
9 -9 7 -19 -5 -8 -10 -16 -15 -19 -13 -3 3 -11 -1 -18 -10 -7 -8 -19 -15 -26
-15 -8 0 -14 -5 -14 -11 0 -20 -26 -37 -61 -40 -19 -2 -47 -13 -64 -25 -54
-38 -199 -94 -245 -94 -9 0 -31 -7 -49 -16 -38 -19 -76 -12 -102 19 -10 12
-18 17 -19 11 -1 -32 68 -67 105 -54 11 4 38 10 59 14 35 7 38 6 27 -8 -7 -8
-26 -18 -42 -21 -38 -9 -37 -16 9 -44 20 -12 48 -38 62 -56 24 -32 25 -32 39
-13 8 13 21 18 33 15 11 -3 47 -1 80 5 49 9 66 8 92 -4 23 -11 70 -14 188 -14
87 1 158 -1 158 -4 0 -3 37 -5 83 -5 45 0 123 -1 172 -2 50 -1 99 -2 110 -1
11 0 130 -2 265 -6 135 -4 283 -7 330 -7 47 -1 95 -6 108 -12 18 -8 25 -8 31
1 6 10 15 10 34 3 25 -10 90 -8 144 4 12 3 25 0 28 -5 4 -7 41 -10 93 -9 48 1
173 -2 277 -6 105 -4 219 -8 255 -9 36 -1 71 -5 79 -10 8 -5 17 -3 23 5 5 8
11 10 14 4 2 -6 31 -9 66 -7 95 5 228 3 378 -4 74 -4 144 -6 155 -4 28 3 299
-6 326 -11 44 -8 59 -8 59 2 0 7 9 9 27 4 14 -3 81 -8 147 -11 149 -6 254 -20
283 -39 13 -9 46 -15 78 -15 31 0 66 -5 77 -11 12 -6 42 -13 67 -16 25 -3 48
-8 51 -12 18 -25 180 -35 164 -10 -3 5 13 9 35 9 21 0 45 2 53 3 7 2 10 2 5 0
-4 -3 -4 -9 -1 -15 4 -5 16 0 30 13 13 12 26 20 30 17 3 -3 20 -2 37 3 38 10
103 -3 100 -19 -4 -15 10 -15 25 0 9 9 12 8 12 -5 0 -9 5 -18 10 -18 6 -1 22
-3 38 -5 101 -12 129 -27 76 -40 -17 -4 -22 -9 -14 -14 20 -12 -64 -23 -119
-15 -44 6 -51 4 -66 -17 l-17 -23 5 28 c3 19 1 25 -7 18 -22 -17 -72 -22 -84
-8 -8 9 -30 13 -64 12 -30 0 -62 5 -75 12 -14 10 -23 11 -28 4 -3 -6 -3 -11 2
-11 4 0 -1 -6 -11 -12 -15 -8 -21 -8 -24 0 -5 17 -37 15 -52 -3 -10 -12 -9
-15 6 -15 14 0 12 -4 -9 -15 -15 -8 -34 -12 -42 -8 -11 3 -13 1 -9 -10 3 -8 1
-18 -5 -22 -6 -3 -11 1 -11 9 0 21 -19 21 -27 0 -3 -9 -13 -14 -24 -11 -10 3
-28 -4 -40 -14 -12 -10 -28 -19 -36 -19 -7 0 -16 -6 -19 -12 -3 -9 -34 -14
-97 -16 -50 -1 -99 -5 -107 -9 -17 -8 -92 -10 -520 -18 -268 -5 -669 -7 -720
-4 -46 3 -649 -12 -672 -17 -15 -3 -32 -3 -37 1 -18 10 -974 21 -1126 12 -55
-3 -145 -9 -200 -12 -55 -3 -110 -8 -122 -10 -12 -3 -25 -1 -28 5 -4 7 -12 7
-25 0 -21 -11 -418 -18 -600 -10 -63 3 -121 1 -129 -4 -15 -10 -32 -12 -140
-20 -34 -3 -70 -11 -78 -17 -11 -10 -16 -10 -22 0 -7 10 -13 10 -29 2 -11 -6
-43 -11 -69 -11 -27 0 -55 -6 -61 -12 -8 -8 -15 -9 -20 -3 -4 6 -16 11 -27 12
-68 8 -101 17 -108 29 -4 8 -23 14 -40 14 -18 0 -38 5 -44 11 -6 6 -36 14 -65
16 -159 13 -294 20 -304 16 -6 -2 -22 1 -36 6 -17 6 -29 6 -36 -1 -7 -7 -21
-7 -45 1 -19 7 -47 9 -61 5 -15 -4 -32 -1 -41 6 -8 7 -22 10 -31 6 -8 -3 -50
3 -92 15 -195 53 -257 59 -310 30 -11 -6 -53 -14 -94 -17 -40 -3 -75 -9 -78
-14 -3 -4 -45 -11 -95 -16 -49 -4 -92 -9 -95 -9 -3 -1 -18 -5 -35 -9 -16 -5
-55 -17 -86 -27 -30 -10 -67 -19 -81 -19 -15 0 -28 -4 -30 -9 -5 -13 -138 -21
-135 -8 1 6 -6 13 -17 15 -11 2 -16 0 -12 -7 5 -7 -2 -11 -16 -11 -18 0 -20 2
-8 10 9 6 10 10 3 10 -6 0 -15 -4 -18 -10 -8 -14 -45 -13 -45 1 0 6 -6 9 -14
6 -8 -3 -17 -1 -19 6 -3 9 -9 9 -26 0 -29 -18 -62 -16 -90 3 -19 14 -25 14
-31 3 -7 -10 -11 -10 -25 1 -10 8 -35 13 -61 11 -24 -1 -52 3 -62 8 -11 6 -22
8 -25 4 -4 -3 -23 -7 -44 -8 -21 -2 -72 -10 -113 -20 -53 -12 -106 -15 -182
-12 -63 2 -108 0 -108 -6 0 -5 -8 -6 -17 -2 -23 10 -45 12 -248 20 -93 3 -183
9 -200 12 -72 12 -803 20 -835 9 -8 -3 -44 -5 -80 -4 -36 0 -135 -2 -220 -6
-148 -6 -408 -9 -440 -6 -8 1 -58 0 -110 -3 -161 -10 -478 -19 -694 -20 -229
0 -241 2 -274 62 -23 42 -56 212 -43 220 5 3 17 32 27 64 16 53 20 57 48 58
160 6 276 4 276 -4 0 -5 6 -4 13 2 9 7 51 9 123 6 60 -2 114 -4 119 -4 6 -1
42 2 80 5 39 3 125 7 192 9 67 1 127 6 133 10 6 4 17 1 25 -5 10 -9 19 -9 28
-2 6 5 37 8 67 6 34 -2 57 1 61 8 6 9 12 8 24 -2 10 -8 19 -10 23 -4 4 5 52
11 107 13 129 3 139 4 147 16 5 6 8 5 8 -4 0 -9 8 -11 27 -7 14 4 69 7 122 7
53 0 114 4 135 10 28 8 41 7 46 -1 5 -8 14 -8 35 0 25 9 172 18 435 24 36 1
72 5 80 9 13 6 53 7 165 5 109 -2 208 0 260 7 90 11 118 11 142 1 14 -6 27 -5
35 1 7 6 24 9 38 8 14 -1 31 2 38 8 8 6 12 6 12 -3 0 -15 124 -7 163 11 27 12
31 20 27 48 -1 10 5 12 22 7 13 -4 43 -10 68 -13 41 -5 47 -8 56 -39 l11 -34
-36 -1 c-31 -1 -33 -2 -11 -8 15 -4 26 -15 28 -28 2 -12 11 -22 20 -22 9 -1
34 -4 55 -7 37 -6 39 -5 137 95 55 56 96 101 92 101 -5 0 -18 -9 -30 -20 -26
-24 -40 -25 -64 -3 -13 11 -22 14 -26 7 -13 -20 -114 -14 -192 12 -90 30 -122
45 -132 61 -5 6 -16 9 -26 6 -10 -2 -24 3 -31 11 -8 9 -24 16 -38 16 -13 0
-35 11 -49 25 -14 14 -31 22 -39 19 -8 -4 -15 -2 -15 4 0 6 6 13 13 15 6 3 2
6 -9 6 -12 1 -27 8 -34 16 -7 8 -21 15 -32 15 -10 0 -21 6 -24 14 -3 8 -19 20
-35 26 -16 7 -29 17 -29 22 0 5 5 6 10 3 6 -3 10 -1 10 5 0 7 -8 9 -20 5 -25
-8 -50 10 -50 36 0 12 -7 19 -19 19 -12 0 -24 12 -32 29 -9 20 -23 31 -42 35
-15 3 -26 10 -23 15 7 11 -41 44 -54 36 -6 -3 -10 0 -10 7 0 15 -44 38 -72 38
-10 0 -18 5 -18 11 0 16 -41 47 -73 54 -15 4 -25 11 -21 16 3 5 -7 9 -21 9
-15 0 -24 4 -20 10 3 6 1 10 -4 10 -6 0 -11 -5 -11 -12 0 -7 -5 -6 -12 4 -7 9
-25 18 -40 22 -15 3 -33 13 -42 21 -8 8 -20 15 -26 15 -11 0 -24 9 -61 43 -10
9 -23 17 -28 17 -5 0 -14 13 -21 29 -6 16 -21 32 -33 35 -33 9 -44 7 -24 -5
14 -8 16 -14 6 -25 -6 -7 -14 -12 -18 -10 -4 3 -5 -10 -3 -28 3 -25 -1 -35
-14 -40 -10 -4 -20 -3 -22 3 -10 31 -51 59 -87 59 -21 0 -40 4 -44 9 -3 4 -26
10 -51 12 -25 2 -48 8 -51 14 -4 6 -15 7 -25 2 -11 -5 -23 -7 -29 -5 -5 1 -22
2 -37 1 -21 -1 -28 3 -29 16 0 14 -2 13 -9 -4 -6 -15 -17 -23 -32 -22 -17 1
-18 2 -5 6 9 2 17 9 17 14 0 14 -31 24 -39 12 -3 -5 -15 -13 -26 -17 -16 -6
-18 -5 -7 5 16 17 15 32 -2 26 -20 -8 -43 20 -28 35 8 8 15 6 27 -6 9 -9 23
-16 31 -16 22 0 17 26 -8 43 l-23 16 28 0 c15 1 27 -3 27 -9 0 -5 5 -10 10
-10 6 0 10 9 10 20 0 11 -7 20 -15 20 -8 0 -15 5 -15 11 0 6 6 9 13 6 6 -2 20
2 30 11 11 10 17 11 17 4 0 -7 5 -12 10 -12 6 0 10 11 10 25 0 19 5 25 18 23
13 -2 18 5 20 28 3 29 6 31 35 30 26 -2 31 -6 29 -23 -2 -18 2 -20 42 -18 37
1 47 -2 52 -17 3 -10 10 -18 15 -18 5 0 9 -7 9 -15 0 -8 7 -15 15 -15 9 0 18
-7 21 -15 4 -8 10 -12 15 -9 5 3 9 1 9 -5 0 -5 10 -13 21 -16 13 -5 17 -10 11
-14 -8 -5 -5 -12 7 -23 31 -27 61 -40 61 -28 0 6 -7 13 -15 16 -18 7 -20 45
-3 62 9 9 9 12 -2 12 -8 0 -1 9 15 20 36 24 55 25 55 5 0 -9 9 -15 21 -15 18
0 19 2 9 15 -11 13 -8 15 19 15 17 0 31 5 31 11 0 5 13 15 30 20 26 9 28 14
19 31 -14 25 -6 33 20 18 18 -9 21 -8 21 10 0 23 10 26 28 8 9 -9 12 -4 12 23
0 48 9 77 27 83 7 3 12 2 9 -3 -6 -9 15 -21 35 -21 12 0 12 37 -1 45 -6 4 -8
11 -5 16 4 5 -1 12 -10 15 -9 4 -14 13 -11 20 3 7 1 16 -5 20 -5 3 -7 15 -3
26 4 13 2 18 -4 14 -6 -3 -13 -2 -16 3 -3 5 1 11 9 15 8 3 12 11 9 19 -2 7 0
25 5 40 8 21 7 27 -7 30 -9 3 21 6 68 7 124 4 147 8 110 20 -14 4 -56 5 -95 2
-96 -6 -250 14 -302 40 -52 26 -75 50 -106 108 -23 44 -47 63 -47 38 0 -7 -28
-42 -63 -78 -89 -94 -114 -100 -352 -99 -271 1 -315 12 -373 89 -45 59 -79 79
-138 85 -27 2 -49 5 -49 6 0 0 -67 2 -150 4 -82 2 -152 4 -155 5 -3 1 -13 1
-23 0 -10 -1 -25 4 -33 10 -11 10 -14 10 -14 0 0 -8 -7 -10 -17 -5 -10 4 -70
9 -133 11 -63 2 -146 5 -184 8 -39 3 -78 0 -89 -6 -11 -5 -17 -6 -14 -1 4 6
-35 11 -95 12 -56 1 -104 4 -107 6 -5 3 -152 -25 -186 -35 -12 -4 -67 21 -78
35 -4 5 -5 18 -3 28 3 12 0 17 -8 14 -8 -3 -12 7 -12 31 0 20 -6 38 -13 40
-28 9 -78 63 -100 107 -23 47 -61 180 -61 216 0 18 -29 19 -990 19 l-990 0 0
-2649z m8440 -1486 c30 -7 71 -19 90 -25 61 -19 142 -21 176 -5 39 18 145 34
165 24 22 -10 151 -41 181 -43 28 -1 52 -16 27 -16 -12 0 -11 -2 1 -10 9 -6
94 -9 206 -9 125 1 197 -2 211 -10 12 -6 36 -11 54 -11 18 0 29 -3 26 -7 -4
-3 -2 -12 4 -20 9 -10 8 -13 -4 -13 -10 0 -18 -14 -22 -40 -4 -22 -14 -44 -24
-49 -9 -5 -91 -15 -181 -21 -159 -11 -261 -27 -325 -48 -94 -32 -175 -46 -260
-44 -77 1 -285 21 -297 28 -6 4 -54 7 -107 6 -78 -2 -109 3 -170 23 -71 24
-84 25 -300 24 -235 -1 -281 6 -281 39 0 10 -5 23 -12 30 -7 7 -9 12 -5 12 3
0 2 11 -3 25 -11 30 -3 56 15 49 7 -3 15 1 18 9 6 15 42 17 297 21 125 2 152
7 200 35 40 23 179 58 240 60 14 0 50 -6 80 -14z m-3015 -815 c-4 -6 7 -10 27
-9 32 1 32 1 8 10 -21 7 -20 8 10 4 104 -13 118 -18 123 -36 3 -12 11 -17 20
-13 21 8 30 -11 11 -26 -12 -11 -12 -15 -2 -22 10 -7 9 -11 -4 -18 -10 -6 -15
-17 -11 -26 3 -9 1 -19 -6 -23 -9 -6 -9 -17 1 -49 7 -23 16 -42 20 -42 14 0
48 -34 48 -48 0 -7 4 -11 9 -7 6 3 15 -4 21 -15 6 -11 15 -20 20 -20 5 0 24
-14 42 -31 18 -16 45 -33 60 -36 15 -3 29 -11 32 -19 3 -7 12 -11 19 -8 8 3
17 -2 20 -10 4 -9 12 -16 20 -16 7 0 19 -6 25 -12 7 -7 18 -13 25 -14 7 0 20
-2 30 -2 9 -1 16 -7 15 -14 -2 -7 14 -15 39 -18 59 -9 62 -17 11 -27 -38 -7
-30 -9 67 -14 158 -9 2953 -1 3055 9 47 5 69 10 50 11 l-35 3 30 9 c17 5 40 7
53 4 12 -3 22 -1 22 5 0 5 17 10 38 10 20 0 64 7 97 14 33 8 98 17 145 21 47
4 90 11 97 17 7 6 14 5 18 -2 3 -5 17 -10 31 -10 14 0 23 -4 19 -10 -6 -10 45
-40 70 -40 33 0 13 -20 -22 -22 -119 -5 156 -15 407 -15 309 0 789 11 660 16
-41 1 -69 5 -62 8 6 2 12 11 12 18 0 8 12 15 28 17 19 2 26 8 24 20 -1 9 2 19
8 23 5 3 10 -3 10 -14 0 -24 18 -28 26 -6 4 10 13 13 25 10 22 -7 24 -2 7 25
-11 17 -10 22 2 30 9 6 16 6 18 0 2 -6 8 -10 13 -10 6 0 8 4 4 9 -3 5 -1 12 5
16 5 3 10 1 10 -4 0 -6 5 -11 10 -11 6 0 10 10 10 23 1 21 1 22 15 3 8 -11 15
-14 15 -8 0 7 5 12 10 12 6 0 10 -7 10 -15 0 -19 14 -19 30 0 8 10 25 13 51
11 25 -3 45 1 53 10 12 11 15 11 20 -1 3 -8 1 -17 -4 -20 -15 -9 -12 -25 5
-25 8 0 12 6 10 13 -7 17 10 41 23 33 6 -4 9 -13 5 -21 -6 -18 13 -20 21 -2 3
6 5 -2 3 -19 -3 -27 0 -30 20 -26 26 5 29 12 11 30 -9 9 -9 12 0 12 6 0 20
-10 32 -22 17 -18 20 -19 20 -5 0 9 5 17 10 17 6 0 10 -13 10 -30 0 -16 5 -30
10 -30 6 0 10 6 10 14 0 27 20 27 30 0 10 -26 13 -27 68 -21 48 5 54 4 40 -7
-29 -21 -21 -26 17 -10 41 17 46 17 42 3 -1 -6 4 -14 12 -16 9 -4 11 0 6 16
-9 28 3 45 20 31 8 -7 19 -9 25 -5 5 3 10 0 10 -9 0 -8 -6 -17 -12 -19 -7 -3
-4 -6 7 -6 11 -1 31 -4 45 -7 22 -4 21 -3 -5 10 -21 10 -25 15 -12 15 10 1 27
-4 38 -10 15 -8 25 -7 37 3 15 12 16 11 4 -4 -12 -15 -9 -17 30 -21 24 -2 -6
-4 -65 -5 -69 -1 -106 -6 -102 -12 4 -6 186 -10 514 -10 493 0 509 -1 534 -20
21 -17 120 -170 194 -300 11 -19 74 -125 140 -236 66 -110 142 -241 168 -290
27 -49 106 -182 177 -297 164 -267 152 -243 129 -266 -11 -11 -37 -25 -58 -30
-37 -10 -1671 -32 -3368 -46 -2050 -16 -7662 2 -7745 25 -19 6 -45 18 -56 28
-24 19 -42 97 -21 89 9 -3 13 6 13 29 0 39 11 54 25 34 7 -11 8 -7 3 14 -5 19
-2 31 7 37 11 7 11 9 1 9 -10 0 -10 5 -2 21 7 11 9 27 6 35 -3 8 0 14 6 14 6
0 8 11 4 31 -5 25 -2 32 14 36 11 3 20 14 20 25 0 11 5 16 10 13 7 -4 8 3 4
21 -6 23 -4 26 10 21 14 -6 16 -3 11 13 -4 14 -2 20 9 20 26 0 29 21 7 51 -24
33 -20 53 10 44 12 -4 19 -2 19 6 0 7 3 10 6 6 4 -3 15 4 25 16 l18 22 1 -25
c1 -16 4 -19 7 -10 3 8 9 17 12 20 24 20 221 427 326 673 23 53 49 97 67 112
l30 25 831 -1 c925 -1 1129 5 1087 31 -12 7 -11 10 4 16 14 5 15 9 4 15 -9 6
-3 10 19 15 22 4 33 13 35 27 2 14 14 24 38 30 19 5 42 15 52 24 9 8 31 16 50
18 18 1 48 11 66 20 18 9 42 15 53 12 13 -3 23 2 30 15 8 15 17 18 42 13 24
-5 28 -4 17 4 -12 9 -10 11 12 11 15 0 33 8 40 19 8 10 25 21 38 23 14 2 24 9
23 16 -4 16 24 16 30 0 4 -10 8 -9 16 2 6 9 7 16 1 18 -13 5 -13 22 1 22 6 0
17 7 25 15 14 13 12 15 -13 16 -28 0 -28 1 -5 11 13 6 21 17 18 24 -2 7 -2 15
2 19 4 3 11 -8 17 -26 l11 -32 18 28 c17 26 17 27 -2 21 -15 -5 -22 -1 -27 14
-6 20 -8 20 -19 4 -17 -22 -91 -12 -82 12 4 9 -2 14 -17 14 -18 0 -22 5 -21
30 3 62 5 67 14 43 5 -13 14 -23 19 -23 5 0 11 10 13 23 2 16 9 21 26 19 12
-2 22 2 22 7 0 6 7 11 16 11 8 0 12 -4 9 -10z m9021 -823 c103 -14 124 -20
124 -39 0 -7 -16 -8 -45 -4 -26 4 -45 3 -45 -2 0 -5 -22 -12 -50 -16 -38 -5
-48 -10 -44 -21 4 -9 0 -15 -10 -15 -9 0 -18 -11 -21 -27 -4 -16 -10 -45 -15
-66 -4 -21 -6 -54 -4 -73 4 -33 2 -36 -38 -54 -37 -16 -39 -19 -17 -19 14 -1
33 -7 43 -14 16 -12 17 -19 6 -71 -21 -104 -63 -146 -144 -146 -35 0 -264 -41
-360 -64 -52 -13 -99 -20 -104 -17 -15 9 -122 173 -122 186 0 6 -11 22 -25 35
-14 13 -25 27 -25 32 0 9 -56 90 -110 158 -66 84 -109 118 -177 136 -77 21
-93 36 -61 58 28 20 57 20 82 1 11 -8 31 -15 45 -15 14 0 32 -4 39 -9 15 -9
96 4 124 19 10 6 39 11 65 11 48 2 48 2 13 10 -27 6 -20 7 27 4 42 -3 63 -1
67 8 5 9 7 9 12 -1 3 -6 10 -10 15 -6 14 8 170 24 283 29 54 3 101 7 104 9 8
9 266 -3 368 -17z"/>
<path d="M11180 1833 c0 -10 25 -13 93 -13 73 0 100 -4 130 -20 46 -25 117
-26 160 -3 19 10 56 17 90 17 42 1 57 5 55 14 -4 19 -528 23 -528 5z"/>
<path d="M12263 1720 c37 -91 50 -110 77 -110 15 0 37 -9 50 -20 14 -12 38
-20 59 -20 50 0 58 -8 110 -95 l46 -77 213 -1 c116 -1 212 0 212 3 0 3 -7 16
-16 28 -16 23 -17 23 -188 17 -112 -5 -180 -3 -198 3 -20 8 -40 37 -78 111
l-52 101 -83 0 c-89 0 -115 5 -115 24 0 6 -11 25 -25 41 l-26 30 14 -35z"/>
<path d="M11591 1668 c22 -57 33 -68 65 -68 12 0 27 -7 34 -15 16 -20 108 -20
136 -1 15 11 65 16 187 20 92 3 167 8 167 10 -2 34 -8 35 -282 35 -179 0 -274
4 -283 11 -7 6 -16 22 -19 35 -4 14 -11 25 -16 25 -5 0 0 -24 11 -52z"/>
<path d="M3691 1656 c-12 -15 -59 -16 -459 -16 -270 1 -449 -3 -455 -9 -5 -5
-7 -14 -3 -19 3 -6 183 -10 461 -11 l455 -2 10 27 c14 35 8 51 -9 30z"/>
<path d="M10900 1635 c0 -18 23 -35 47 -35 13 0 26 -7 29 -15 5 -11 23 -15 74
-15 48 0 71 4 80 15 10 12 43 15 181 15 141 0 169 2 169 14 0 8 -4 18 -10 21
-18 11 -570 11 -570 0z"/>
<path d="M4366 1628 c-13 -7 -99 -9 -274 -7 -233 4 -256 3 -266 -13 -17 -27 6
-41 73 -46 50 -4 64 -1 88 18 26 21 35 21 218 19 188 -3 190 -2 193 19 4 24
-4 27 -32 10z"/>
<path d="M9772 1630 c-268 -5 -304 -10 -253 -36 13 -7 28 -17 34 -23 17 -17
142 -14 157 4 10 12 44 15 187 15 173 0 174 0 171 22 -2 12 -7 22 -13 22 -5 1
-133 -1 -283 -4z"/>
<path d="M10200 1623 c0 -7 15 -19 34 -27 18 -8 37 -19 40 -25 4 -6 33 -11 65
-11 45 0 62 4 76 20 17 19 31 20 192 20 95 0 173 3 173 8 -1 24 -31 27 -297
27 -218 0 -283 -3 -283 -12z"/>
<path d="M4536 1614 c-4 -10 1 -25 10 -35 22 -25 135 -27 154 -4 10 12 46 15
206 15 186 0 215 4 199 30 -5 8 -11 7 -21 -1 -11 -9 -76 -10 -264 -5 -137 3
-256 9 -263 12 -8 3 -17 -3 -21 -12z"/>
<path d="M5245 1610 c-17 -54 106 -84 162 -40 24 18 41 20 219 20 191 0 194 0
194 21 0 18 -3 20 -27 13 -28 -9 -493 -7 -525 2 -10 3 -19 -3 -23 -16z"/>
<path d="M6506 1621 c-6 -9 -81 -11 -279 -11 -170 1 -273 -2 -275 -8 -1 -5 9
-19 24 -31 36 -28 108 -28 149 -1 28 19 45 20 213 19 101 -1 185 1 188 4 3 3
2 13 -4 23 -6 12 -11 13 -16 5z"/>
<path d="M6662 1611 c-3 -8 6 -24 22 -38 32 -28 118 -32 153 -8 16 11 63 15
209 17 181 3 189 4 189 23 0 15 -5 19 -20 16 -46 -9 -300 -11 -419 -4 -107 7
-129 6 -134 -6z"/>
<path d="M7374 1621 c-12 -12 0 -34 29 -51 42 -26 123 -27 150 -2 16 15 45 17
209 20 171 3 189 5 186 20 -3 11 -11 16 -23 13 -37 -8 -209 -9 -378 -3 -93 4
-171 5 -173 3z"/>
<path d="M8086 1623 c-15 -15 -3 -32 34 -52 50 -26 117 -27 150 -3 21 14 52
17 205 19 99 2 181 6 182 10 2 5 -1 13 -5 20 -6 9 -19 9 -52 1 -41 -9 -484 -3
-501 8 -3 2 -9 1 -13 -3z"/>
<path d="M8790 1609 c0 -40 171 -70 200 -34 10 12 44 15 191 15 98 0 180 4
183 8 14 23 -27 27 -291 27 -250 0 -283 -2 -283 -16z"/>
<path d="M11820 1552 c0 -5 16 -44 35 -86 l34 -76 301 0 c165 0 300 4 300 8 0
5 -6 16 -13 26 -12 17 -34 18 -298 17 l-285 -2 -24 51 c-23 49 -50 83 -50 62z"/>
<path d="M11117 1544 c-5 -5 38 -141 49 -153 1 -2 56 -3 121 -2 108 2 121 0
138 -19 15 -16 30 -20 82 -20 58 0 64 -2 58 -19 -8 -25 42 -139 77 -176 27
-29 32 -30 128 -33 92 -4 98 -5 88 -22 -9 -14 -3 -36 33 -115 65 -142 46 -135
382 -135 l275 0 17 26 c14 22 15 31 5 55 -9 20 -18 28 -29 25 -9 -3 -145 -6
-303 -8 -245 -3 -288 -5 -291 -18 -2 -8 -9 5 -16 29 -7 23 -10 49 -8 55 4 10
79 15 293 20 158 3 289 8 291 10 2 2 1 11 -3 20 -5 14 -37 16 -303 16 l-298 0
-11 25 c-26 56 -29 55 191 57 353 5 353 5 374 -14 18 -16 49 -18 344 -18 311
1 325 1 348 21 24 20 24 21 9 47 l-17 27 -748 0 -748 0 -33 69 c-18 38 -31 75
-28 83 4 9 29 13 96 13 90 0 98 3 80 30 -7 12 -46 14 -248 11 -132 -1 -261 1
-287 4 -44 7 -47 10 -70 61 -24 55 -27 59 -38 48z"/>
<path d="M3824 1515 c-6 -11 -17 -37 -23 -57 -12 -35 -15 -37 -67 -44 -30 -3
-82 -4 -117 0 -34 3 -262 7 -507 8 -416 3 -445 2 -448 -15 -3 -16 19 -17 347
-17 338 0 352 -1 371 -20 16 -16 33 -20 89 -20 47 0 71 4 73 13 3 8 43 13 133
17 l128 5 19 55 c10 30 17 64 16 75 l-3 20 -11 -20z"/>
<path d="M10414 1499 c3 -19 14 -53 23 -76 l16 -43 112 0 c88 0 115 -3 125
-15 9 -11 33 -15 91 -15 64 0 79 3 79 15 0 12 15 15 73 17 39 0 82 0 95 -1 22
-2 26 6 17 31 -5 12 -50 14 -279 10 -178 -2 -281 0 -293 6 -11 6 -25 29 -32
51 -15 52 -37 68 -27 20z"/>
<path d="M4538 1500 c-4 -8 -9 -28 -12 -43 -11 -48 -30 -50 -320 -41 -264 9
-286 7 -286 -23 0 -10 22 -13 85 -13 72 0 88 -3 105 -20 25 -25 140 -29 160
-5 9 11 41 15 133 17 l121 3 13 50 c13 49 13 107 1 75z"/>
<path d="M9700 1496 c0 -8 5 -37 12 -65 l11 -51 114 0 c100 0 115 -2 133 -20
27 -27 144 -29 159 -2 8 14 25 17 105 17 79 0 96 3 96 15 0 8 -4 20 -8 25 -4
6 -115 10 -297 10 l-290 0 -9 43 c-8 40 -26 59 -26 28z"/>
<path d="M5250 1476 c0 -13 -8 -34 -18 -46 -17 -21 -20 -21 -300 -18 -288 3
-292 3 -292 -33 0 -5 45 -9 100 -9 80 0 102 -3 106 -15 5 -11 23 -15 79 -15
56 0 74 4 79 15 4 12 28 15 125 15 l119 0 6 38 c4 20 9 49 12 65 3 16 1 27 -5
27 -6 0 -11 -11 -11 -24z"/>
<path d="M6690 1469 c0 -20 -6 -42 -14 -48 -11 -9 -90 -11 -295 -9 -265 3
-282 2 -287 -15 -3 -10 -3 -22 1 -25 4 -4 49 -8 101 -8 72 -1 99 -5 113 -18
27 -25 132 -22 156 4 16 18 31 20 126 20 l107 0 7 49 c4 30 2 57 -4 68 -9 15
-10 12 -11 -18z"/>
<path d="M8984 1473 c3 -16 8 -45 12 -65 l6 -38 113 0 c88 0 115 -3 125 -15
19 -23 146 -21 159 3 8 14 26 17 108 19 60 1 98 6 97 13 -1 5 -2 13 -2 18 -1
4 -128 6 -281 4 -271 -3 -280 -3 -300 17 -12 12 -21 32 -21 46 0 14 -5 25 -11
25 -6 0 -8 -11 -5 -27z"/>
<path d="M5970 1461 c0 -20 -7 -34 -20 -41 -14 -8 -112 -10 -300 -8 l-280 3 0
-22 c0 -22 3 -23 93 -23 81 0 96 -3 112 -20 24 -27 129 -29 158 -2 16 14 38
17 131 17 l111 0 5 58 c3 32 2 61 -2 63 -5 3 -8 -8 -8 -25z"/>
<path d="M7408 1454 l-3 -39 -293 0 -292 0 0 -22 c0 -22 3 -23 100 -23 88 0
102 -2 117 -20 14 -16 30 -20 83 -20 53 0 69 4 83 20 15 18 29 20 122 20 l105
0 0 48 c0 62 -17 91 -22 36z"/>
<path d="M7547 1483 c-4 -7 -5 -35 -1 -63 l7 -50 102 0 c91 0 104 -2 121 -21
17 -19 27 -21 81 -16 38 3 68 11 78 21 13 13 38 16 121 16 106 0 117 4 95 39
-5 8 -14 10 -21 6 -14 -9 -533 -7 -555 1 -8 3 -15 22 -17 42 -2 23 -6 32 -11
25z"/>
<path d="M8274 1425 l1 -50 113 -3 c88 -2 114 -6 119 -17 8 -21 145 -21 163 0
10 11 36 15 111 15 96 0 99 1 99 23 l0 22 -286 -3 c-300 -3 -308 -2 -317 41
-3 12 -4 0 -3 -28z"/>
<path d="M3380 1319 c0 -5 -11 -35 -25 -65 l-25 -54 -332 1 c-183 0 -355 4
-381 8 -42 7 -50 6 -62 -13 -8 -11 -15 -25 -15 -31 0 -7 87 -9 262 -7 270 3
308 1 308 -21 0 -18 155 -10 171 9 6 8 26 14 44 14 30 0 33 4 59 70 27 67 29
100 6 100 -5 0 -10 -5 -10 -11z"/>
<path d="M10845 1317 c-5 -11 2 -45 17 -85 24 -64 26 -67 63 -73 21 -4 42 -14
47 -23 8 -14 37 -16 249 -16 196 0 245 3 269 15 33 17 36 28 17 62 -9 16 -16
20 -27 13 -8 -6 -137 -10 -293 -10 l-277 0 -14 33 c-43 101 -44 103 -51 84z"/>
<path d="M10115 1308 c-4 -9 2 -44 12 -79 18 -59 21 -64 53 -70 18 -4 41 -17
49 -28 14 -18 25 -20 79 -17 64 3 82 -5 63 -28 -8 -10 -4 -38 18 -107 43 -143
32 -139 353 -139 219 0 265 3 294 16 19 9 36 20 39 24 2 4 -14 51 -35 106 -22
54 -40 94 -40 87 0 -6 10 -36 21 -67 12 -31 19 -59 16 -62 -3 -3 -139 -7 -301
-8 -189 0 -296 -5 -297 -11 -2 -28 -41 108 -46 161 -5 58 -4 61 18 67 13 4
102 7 197 7 176 0 183 2 163 39 -8 15 -18 16 -78 9 -37 -4 -172 -7 -300 -6
l-232 1 -11 46 c-6 25 -15 53 -20 61 -8 12 -10 12 -15 -2z"/>
<path d="M4100 1268 c-6 -24 -13 -49 -15 -56 -4 -10 -66 -12 -304 -10 -298 3
-300 3 -310 -18 l-10 -22 190 -3 c152 -3 192 -7 199 -19 5 -8 7 -17 5 -20 -2
-3 34 -3 78 -1 45 2 85 8 88 13 4 6 22 13 40 17 28 6 36 14 50 51 28 77 33
110 15 110 -10 0 -19 -16 -26 -42z"/>
<path d="M4847 1303 c-3 -4 -8 -29 -12 -55 l-7 -48 -292 0 c-195 0 -296 4
-303 11 -7 7 -14 1 -22 -22 -6 -17 -11 -34 -11 -35 0 -2 88 -4 195 -4 184 0
196 -1 207 -20 11 -17 24 -20 80 -20 57 0 69 3 78 20 7 13 21 20 40 20 18 0
33 7 38 18 17 31 33 125 23 135 -5 5 -11 5 -14 0z"/>
<path d="M5575 1283 c-18 -85 -19 -87 -60 -96 -48 -10 -523 -4 -547 7 -15 7
-18 3 -18 -16 l0 -24 282 -3 c156 -1 290 -7 300 -12 23 -12 45 -2 52 25 14 55
18 134 8 140 -7 4 -14 -4 -17 -21z"/>
<path d="M9386 1301 c-11 -17 15 -129 34 -154 16 -20 18 -20 34 -4 16 15 47
17 302 17 156 0 284 3 284 8 0 4 -3 17 -6 30 -5 18 -9 20 -21 10 -17 -14 -470
-25 -547 -14 -43 7 -45 8 -51 49 -9 52 -20 74 -29 58z"/>
<path d="M6310 1255 c0 -40 -3 -47 -26 -55 -27 -11 -514 -14 -551 -4 -18 5
-23 14 -23 37 0 45 -7 30 -14 -33 l-7 -55 318 2 318 2 6 68 c7 70 5 83 -12 83
-5 0 -9 -20 -9 -45z"/>
<path d="M7050 1250 c0 -48 -1 -49 -32 -55 -18 -3 -152 -5 -298 -3 l-265 3 1
43 c0 23 -3 42 -8 42 -7 0 -9 -15 -12 -98 l-1 -33 315 0 315 1 3 75 c2 47 -1
75 -8 75 -5 0 -10 -22 -10 -50z"/>
<path d="M7783 1248 c2 -51 1 -53 -28 -59 -39 -9 -483 -11 -524 -3 -30 6 -31
9 -31 55 0 27 -4 49 -9 49 -12 0 -21 -64 -14 -105 l6 -34 313 -3 c204 -2 314
1 315 7 2 26 -3 112 -7 128 -11 36 -23 15 -21 -35z"/>
<path d="M7915 1289 c-3 -9 -2 -44 2 -78 l8 -62 314 1 c173 0 316 2 317 3 7 7
-16 131 -26 141 -8 8 -9 -3 -4 -41 5 -40 3 -54 -7 -57 -20 -7 -497 -14 -541
-8 -37 4 -38 6 -38 46 0 48 -15 81 -25 55z"/>
<path d="M8654 1228 c3 -39 8 -73 9 -74 1 -1 145 -4 320 -6 277 -3 317 -1 317
12 -1 23 -28 131 -35 138 -3 4 -3 -16 0 -44 l7 -51 -143 -6 c-182 -9 -377 -9
-418 -1 -28 6 -31 11 -37 55 -11 79 -28 59 -20 -23z"/>
<path d="M3089 1069 c-8 -17 -8 -20 1 -14 13 8 12 0 -18 -78 -10 -26 -21 -45
-24 -42 -3 3 -143 7 -312 8 l-306 2 -12 -29 c-10 -26 -9 -31 11 -47 21 -18 45
-19 300 -19 334 0 315 -6 372 131 22 50 39 96 39 101 0 17 -40 7 -51 -13z"/>
<path d="M3850 1069 c0 -12 -6 -35 -14 -52 -8 -18 -17 -45 -20 -60 -4 -15 -11
-25 -16 -22 -5 3 -145 6 -311 6 -320 0 -319 0 -319 -47 0 -38 32 -43 315 -46
337 -4 323 -9 371 134 18 53 30 99 26 102 -13 14 -32 4 -32 -15z"/>
<path d="M3979 1054 c-20 -53 -49 -149 -49 -164 0 -9 13 -23 29 -33 25 -15 61
-17 290 -17 320 0 321 0 351 99 31 108 35 141 16 141 -11 0 -16 -9 -16 -29 0
-36 -31 -135 -39 -124 -3 4 -138 8 -299 9 -161 1 -295 4 -299 8 -4 3 3 34 15
68 22 60 23 98 1 42z"/>
<path d="M5547 1073 c-3 -5 -9 -34 -13 -64 -13 -100 29 -92 -420 -88 -318 3
-396 7 -403 17 -6 10 -11 2 -16 -24 -6 -32 -3 -40 17 -56 21 -17 49 -18 405
-15 451 2 414 -9 438 131 10 55 12 93 6 99 -5 5 -11 5 -14 0z"/>
<path d="M9310 1001 c15 -69 16 -81 3 -85 -8 -3 -829 -6 -1824 -6 -1620 0
-1810 2 -1816 15 -3 9 0 43 6 76 11 54 10 81 -3 68 -3 -3 -10 -36 -16 -74 -6
-39 -13 -82 -16 -98 -12 -60 -107 -57 1778 -56 942 1 1759 5 1815 8 57 4 108
12 114 18 9 9 8 33 -5 100 -17 84 -29 113 -46 113 -4 0 0 -36 10 -79z"/>
<path d="M10257 1033 c9 -27 18 -60 20 -75 l5 -28 -188 -2 c-104 -2 -286 -3
-406 -3 l-216 0 -5 40 c-10 75 -19 105 -32 105 -17 0 27 -187 49 -209 15 -14
62 -16 392 -19 365 -3 376 -2 409 18 30 18 33 24 25 48 -43 139 -55 172 -61
172 -4 0 0 -21 8 -47z"/>
<path d="M12650 976 c0 -20 41 -76 73 -100 23 -17 42 -20 105 -20 42 1 166 2
274 3 188 1 198 2 217 22 18 19 19 25 7 47 l-13 24 -300 1 c-165 0 -305 -3
-310 -6 -6 -4 -15 5 -21 18 -12 27 -32 34 -32 11z"/>
<path d="M11150 966 c0 -3 7 -23 15 -44 28 -70 38 -72 347 -72 255 1 275 2
296 20 25 21 24 44 -4 85 -14 19 -14 19 -14 -3 l0 -23 -300 3 c-195 2 -300 -1
-301 -7 -1 -5 -4 1 -8 14 -6 21 -31 43 -31 27z"/>
<path d="M4258 7728 c-3 -36 1 -48 38 -97 23 -31 58 -71 78 -89 20 -18 43 -43
52 -57 9 -14 21 -25 26 -25 18 0 108 82 124 111 14 29 27 160 17 186 -4 10
-41 13 -168 13 l-163 0 -4 -42z"/>
<path d="M6085 7760 c-9 -14 -3 -72 8 -87 5 -7 4 -21 -3 -33 -8 -16 -9 -30 -1
-48 5 -15 12 -41 16 -58 4 -19 16 -36 30 -44 16 -8 25 -22 25 -37 0 -31 18
-29 26 2 3 14 18 34 31 45 l25 20 18 -23 c16 -20 19 -33 22 -94 0 -10 -2 -36
-5 -58 -8 -51 -1 -75 24 -75 20 0 26 16 8 22 -5 2 -7 11 -4 21 4 9 11 15 15
12 5 -3 6 4 3 15 -3 12 0 20 7 20 10 0 10 3 0 15 -11 13 -9 20 10 40 12 13 19
28 16 34 -4 5 -2 12 4 16 11 7 6 257 -5 288 -6 15 -23 17 -135 17 -77 0 -131
-4 -135 -10z"/>
<path d="M8386 7743 c-7 -34 16 -125 41 -160 10 -14 23 -33 28 -43 6 -9 18
-25 28 -34 17 -18 19 -17 56 20 20 22 57 51 82 66 52 31 93 98 87 144 l-3 29
-157 3 -156 2 -6 -27z"/>
<path d="M2353 7447 c-56 -11 -61 -23 -20 -47 20 -12 39 -29 42 -39 4 -14 16
-18 55 -17 27 1 50 4 50 7 0 4 46 5 103 4 62 -2 107 2 115 8 8 6 28 10 45 9
18 -1 38 2 46 7 9 6 21 5 33 -2 15 -9 20 -9 27 2 6 9 11 10 15 2 4 -6 16 -11
27 -11 11 0 17 5 14 10 -3 6 -3 10 2 11 4 1 24 3 43 6 19 3 58 5 87 6 34 0 54
5 57 14 8 19 33 16 45 -4 10 -17 10 -17 11 0 0 21 28 23 36 2 4 -8 14 -15 23
-14 10 0 11 2 4 6 -24 9 -13 23 18 23 16 0 28 4 24 9 -6 10 -146 14 -592 15
-149 1 -289 -3 -310 -7z"/>
<path d="M6166 7316 c3 -8 1 -23 -5 -33 -6 -10 -11 -12 -11 -5 0 6 -4 12 -9
12 -5 0 -7 -9 -4 -20 3 -10 8 -19 12 -18 36 4 43 -32 11 -59 -11 -10 -20 -23
-20 -30 0 -7 -6 -13 -14 -13 -8 0 -17 -7 -20 -16 -5 -12 -1 -14 17 -9 12 4 28
14 35 23 11 14 12 14 12 -4 0 -20 8 -21 148 -15 37 1 42 18 9 30 -12 5 -39 27
-58 48 -20 22 -44 43 -53 46 -9 4 -24 23 -32 42 -13 33 -30 51 -18 21z"/>
<path d="M8483 7212 c-52 -53 -66 -61 -130 -77 -69 -18 -72 -20 -66 -44 7 -30
33 -82 48 -94 6 -5 3 -7 -7 -3 -30 9 -20 -17 16 -48 35 -29 35 -29 14 -45 -15
-12 -19 -23 -14 -39 8 -23 32 -20 54 7 12 14 12 12 7 -11 -8 -33 16 -48 46
-30 24 15 29 15 29 -2 0 -7 -13 -16 -30 -19 -46 -10 -38 -30 9 -22 36 6 40 4
61 -29 23 -38 40 -46 40 -20 0 12 6 15 26 10 20 -5 32 0 61 29 20 20 33 41 30
49 -3 8 1 20 9 27 8 7 13 18 10 25 -6 17 20 44 42 44 12 0 13 3 4 12 -17 17
-15 28 4 28 8 0 12 4 9 10 -3 6 1 7 9 4 21 -8 20 6 -1 22 -17 13 -17 14 5 20
12 3 22 11 22 16 0 5 7 16 15 25 12 12 13 18 4 29 -8 10 -8 14 0 14 6 0 11 4
11 9 0 5 -24 15 -52 22 -63 14 -106 37 -153 80 -72 66 -67 66 -132 1z"/>
<path d="M6419 7113 c-1 -5 -1 -11 0 -15 0 -3 -43 -4 -97 -2 -147 7 -154 7
-202 -3 -26 -5 -55 -7 -65 -3 -27 9 -55 1 -55 -16 0 -8 12 -28 27 -44 19 -22
35 -30 60 -30 40 0 41 -20 2 -32 -21 -6 -20 -7 7 -5 43 2 86 -21 79 -44 -3 -9
-1 -20 5 -24 7 -4 14 2 17 14 6 25 12 26 27 5 7 -9 18 -12 29 -8 21 8 22 24 2
24 -8 0 -15 4 -15 8 0 9 59 32 83 32 21 0 21 7 2 26 -8 9 -15 23 -14 32 0 12
3 11 9 -5 11 -26 28 -30 36 -8 9 23 34 18 34 -7 0 -22 1 -22 19 5 10 15 28 35
40 43 17 13 20 19 10 30 -9 11 -7 14 10 14 12 0 19 5 16 10 -7 12 -64 14 -66
3z"/>
<path d="M8956 6305 c-26 -24 -74 -36 -61 -15 9 15 -11 12 -24 -3 -13 -16 -44
-15 -64 1 -12 10 -16 9 -21 -3 -3 -9 -10 -14 -15 -11 -5 3 -16 -5 -26 -18 -16
-21 -21 -22 -49 -12 -17 6 -35 17 -39 24 -12 18 -51 16 -43 -3 4 -10 -1 -14
-17 -12 -16 1 -21 -3 -19 -16 2 -14 -2 -16 -23 -11 -19 5 -25 3 -23 -7 3 -12
-2 -15 -37 -18 -8 0 -15 -10 -15 -21 0 -13 -5 -18 -15 -14 -10 4 -15 0 -15
-11 0 -10 -7 -15 -18 -13 -19 3 -22 0 -22 -26 0 -16 71 -12 140 9 25 8 83 25
130 39 47 14 110 35 140 47 30 12 87 33 125 47 85 31 78 26 70 51 -8 28 -26
26 -59 -4z"/>
<path d="M6167 6264 c-3 -3 -3 -12 0 -20 3 -8 0 -14 -6 -14 -7 0 -11 -8 -9
-17 2 -15 -4 -18 -34 -17 -20 1 -44 5 -55 9 -10 4 -22 9 -28 10 -5 1 -12 3
-15 4 -3 2 -24 4 -48 5 -25 1 -47 8 -53 17 -5 8 -9 10 -9 4 0 -20 16 -32 63
-46 26 -7 47 -17 47 -21 0 -4 11 -8 25 -8 14 0 28 -7 31 -15 5 -11 10 -13 19
-5 9 7 21 7 41 -1 94 -37 137 -49 162 -43 13 4 22 2 22 -5 0 -6 16 -11 35 -11
38 0 44 10 19 31 -9 7 -23 31 -32 53 -9 22 -17 35 -19 29 -6 -16 -52 -3 -68
20 -15 21 -15 21 -15 -3 0 -23 -2 -22 -27 13 -26 37 -34 42 -46 31z"/>
<path d="M6336 6012 c-3 -5 -3 -25 1 -45 5 -33 9 -37 34 -37 26 0 29 -4 29
-30 0 -23 4 -30 20 -30 11 0 20 -4 20 -9 0 -12 -62 -23 -69 -13 -3 5 -14 11
-23 15 -10 3 -20 22 -24 44 -6 33 -8 35 -15 15 -9 -24 -24 -29 -34 -11 -4 6
-13 8 -21 5 -10 -4 -14 0 -12 12 2 11 -5 18 -19 20 -18 3 -23 10 -23 35 l-1
32 -14 -25 c-21 -36 -19 -60 5 -60 11 0 20 -4 20 -9 0 -5 -9 -13 -20 -16 -22
-7 -26 -20 -9 -30 5 -4 18 0 28 9 25 23 34 20 20 -6 -7 -12 -13 -40 -15 -61
-3 -33 -1 -37 15 -32 12 3 21 0 25 -10 3 -8 1 -15 -4 -15 -6 0 -10 -4 -10 -8
0 -5 28 -2 63 5 34 8 122 17 195 20 144 6 152 12 71 53 -41 21 -119 93 -119
109 0 6 -5 11 -10 11 -11 0 -18 5 -64 45 -32 28 -33 28 -40 17z"/>
<path d="M7463 5934 c-2 -7 -21 -9 -53 -6 -36 3 -50 1 -50 -8 0 -7 -8 -10 -20
-7 -10 3 -24 -1 -30 -8 -6 -8 -17 -12 -24 -9 -7 3 -31 -4 -52 -14 -108 -55
-196 -85 -241 -84 -27 1 -33 -2 -33 -19 0 -17 5 -20 25 -17 13 3 26 1 27 -4 2
-5 10 -10 19 -11 8 -2 32 -13 52 -25 21 -12 41 -22 45 -23 15 -1 53 -60 50
-76 -2 -13 -14 -19 -43 -21 -22 -1 -47 -5 -55 -8 -13 -5 -13 -7 1 -17 23 -18
32 -47 14 -47 -8 0 -15 5 -15 10 0 6 -5 10 -12 10 -6 0 -3 -9 7 -20 10 -11 24
-20 32 -20 7 0 13 -4 13 -10 0 -5 6 -10 14 -10 7 0 24 -9 38 -19 13 -11 41
-23 62 -26 35 -7 41 -4 82 36 40 39 44 48 43 85 -2 34 3 47 31 78 74 81 245
131 423 123 125 -5 151 0 155 33 4 40 -10 51 -71 53 -32 1 -57 5 -57 10 0 4
-9 7 -21 7 -11 0 -29 4 -39 10 -10 5 -60 21 -111 36 -103 28 -199 37 -206 18z"/>
</g>
</svg>
